<svg width="32" height="32" viewBox="0 0 32 32" fill="none" xmlns="http://www.w3.org/2000/svg">
<path d="M32 16C32 24.8366 24.8366 32 16 32C7.16344 32 0 24.8366 0 16C0 7.16344 7.16344 0 16 0C24.8366 0 32 7.16344 32 16Z" fill="#304FFE"/>
<path fill-rule="evenodd" clip-rule="evenodd" d="M9.37596 10.95C9.77307 10.5573 10.4 10.575 10.7762 10.9895L14.0903 14.6415C14.5876 15.1895 14.5981 16.0444 14.1143 16.6055L10.7934 20.4577C10.4274 20.8822 9.80116 20.9166 9.39456 20.5346C8.98796 20.1525 8.955 19.4987 9.32094 19.0743L12.2748 15.6479L9.33811 12.4118C8.9619 11.9972 8.97884 11.3428 9.37596 10.95Z" fill="white"/>
<path fill-rule="evenodd" clip-rule="evenodd" d="M16.1981 19.5592C16.1981 18.9881 16.6416 18.5252 17.1886 18.5252H21.9429C22.4899 18.5252 22.9333 18.9881 22.9333 19.5592C22.9333 20.1302 22.4899 20.5932 21.9429 20.5932H17.1886C16.6416 20.5932 16.1981 20.1302 16.1981 19.5592Z" fill="white"/>
<path fill-rule="evenodd" clip-rule="evenodd" d="M16 28.1333C22.7011 28.1333 28.1333 22.7011 28.1333 16C28.1333 9.29895 22.7011 3.86667 16 3.86667C9.29895 3.86667 3.86667 9.29895 3.86667 16C3.86667 22.7011 9.29895 28.1333 16 28.1333ZM16 29.8667C23.6583 29.8667 29.8667 23.6583 29.8667 16C29.8667 8.34165 23.6583 2.13333 16 2.13333C8.34165 2.13333 2.13333 8.34165 2.13333 16C2.13333 23.6583 8.34165 29.8667 16 29.8667Z" fill="white"/>
</svg>
